<?xml version="1.0" encoding="UTF-8"?>
<!DOCTYPE svg PUBLIC "-//W3C//DTD SVG 1.1//EN" "http://www.w3.org/Graphics/SVG/1.1/DTD/svg11.dtd">
<!-- Creator: CorelDRAW 2018 -->
<svg xmlns="http://www.w3.org/2000/svg" xml:space="preserve" width="56.4567mm" height="37.83mm" version="1.1" style="shape-rendering:geometricPrecision; text-rendering:geometricPrecision; image-rendering:optimizeQuality; fill-rule:evenodd; clip-rule:evenodd"
viewBox="0 0 5645.68 3783.01"
 xmlns:xlink="http://www.w3.org/1999/xlink">
 <defs>
  <style type="text/css">
   <![CDATA[
    .str0 {stroke:#83B41C;stroke-width:100;stroke-miterlimit:22.9256}
    .fil0 {fill:none}
    .fil1 {fill:#83B41C}
   ]]>
  </style>
 </defs>
 <g id="Layer_x0020_1">
  <metadata id="CorelCorpID_0Corel-Layer"/>
  <g id="_640548960">
   <rect class="fil0 str0" x="50" y="50" width="5545.68" height="3683.01" rx="173.37" ry="173.37"/>
   <path class="fil1" d="M1292.39 1408.22l1275.05 -774.14c88.12,-52.96 167.78,-108.1 255.39,-154.46 84.95,44.95 164.3,99.51 248.31,150.15 87.83,52.94 169.25,99.69 254.83,155.01l510.71 308.97c41.3,24.71 977.94,603.1 1023.97,615.39l254.01 192.12c-48.84,13.05 -1310.79,804.38 -1398.91,857.34 -215.45,129.48 -718.46,449.21 -892.92,541.53l-1013.85 -614.13c-171.42,-102.59 -337.21,-206.3 -509.52,-310.16 -46.95,-28.31 -729.24,-464.1 -768.47,-474.58 246.06,-162.29 512.44,-343.45 761.4,-493.04zm-860.29 470.27c0,110.98 104.02,145.65 261.2,239.71l1508.19 916.71c55.61,34.21 566.74,357.72 621.34,357.72 65.93,0 1067.52,-629.98 1215.99,-719.37 203.79,-122.68 396.36,-243.13 601.93,-365.75l452.4 -276.2c81.47,-49.8 120.41,-55.06 120.41,-152.82 0,-82.08 -157.54,-154.89 -261.2,-216.93l-1508.19 -916.71c-105.65,-64.99 -202.51,-118.6 -304.8,-184.72 -338.97,-219.12 -302.56,-198.07 -476.56,-93.94 -50.69,30.34 -98.43,57.23 -149.57,89.5l-452.54 276.07c-48.68,29.14 -100.53,60.79 -149.28,89.79 -102.45,60.93 -200.39,122.22 -304.58,184.95l-1054.33 641.95c-50.93,31.13 -120.41,56.44 -120.41,130.04z"/>
   <path class="fil1" d="M2036.33 2045.98c-60,-149.85 30.54,-559.63 111.68,-557.9 187.32,-34.15 834.39,113.67 1156.33,385.45 81.51,60.73 225.99,173.03 293.29,250.46 -165.65,712.92 -1332.2,862.29 -1561.3,-78.01zm1588.87 -25.89l-368.06 -268.53c-203.45,-159.81 -797.93,-352.36 -1066.69,-358.35 196.2,-442.07 1467.91,-567.57 1434.75,626.88zm-1690.36 -118.83c0,257.55 127.1,474.9 258.99,606.24 76.62,76.3 145.09,133.27 249.28,183.32 349.76,168.04 752.72,74.71 991.66,-166.23 79.63,-80.3 141.65,-161.53 192.76,-262.62 166.62,-329.55 63.04,-752.93 -169.99,-984.03 -539.95,-535.46 -1260.84,-198.38 -1441.64,249 -42,103.92 -81.06,231.17 -81.06,374.32z"/>
   <path class="fil1" d="M2453.92 2272.74c0,104.47 143.93,87.83 143.93,13.71 0,-115.18 -143.93,-92.96 -143.93,-13.71z"/>
   <path class="fil1" d="M3007.02 1458.65c0,97.89 143.94,91.52 143.94,0 0,-88.01 -143.94,-90.31 -143.94,0z"/>
   <path class="fil1" d="M2793.33 2139.13c0,78 87.71,90.96 124.35,54.32 36.63,-36.64 23.69,-124.35 -54.32,-124.35 -39.34,0 -70.03,30.69 -70.03,70.03z"/>
   <path class="fil1" d="M2707.13 2368.01c0,52 25.68,77.69 77.69,77.69 61.99,0 87.33,-82.48 46.07,-123.74 -41.3,-41.29 -123.76,-18.05 -123.76,46.05z"/>
   <path class="fil1" d="M2290.06 2039.54c0,112.83 96.14,94.14 123.28,67 27.13,-27.13 45.83,-123.28 -66.99,-123.28 -20.63,0 -56.29,35.66 -56.29,56.28z"/>
  </g>
 </g>
</svg>
